<svg xmlns="http://www.w3.org/2000/svg" xmlns:xlink="http://www.w3.org/1999/xlink" width="1207pt" height="1000" viewBox="0 0 1206.6 749.6"><g id="graph0" class="graph" transform="scale(1 1) rotate(0) translate(28.8 720.8)"><title>Gemcutter</title><polygon fill="#fff" stroke="transparent" points="-28.8 28.8 -28.8 -720.8 1177.8 -720.8 1177.8 28.8 -28.8 28.8"/><text x="574.5" y="-677.6" fill="#000" font-family="Arial BoldMT" font-size="13" text-anchor="middle">RubyGems.org domain model</text><g id="node1" class="node"><title>m_Delayed::Backend::ActiveRecord::Job</title><path fill="none" stroke="#000" d="M40,-477C40,-477 210,-477 210,-477 216,-477 222,-483 222,-489 222,-489 222,-611 222,-611 222,-617 216,-623 210,-623 210,-623 40,-623 40,-623 34,-623 28,-617 28,-611 28,-611 28,-489 28,-489 28,-483 34,-477 40,-477"/><text x="32.674" y="-609.7" fill="#000" font-family="Arial BoldMT" font-size="11" text-anchor="start">Delayed::Backend::ActiveRecord::Job</text><polyline fill="none" stroke="#000" points="28 -604 222 -604"/><text x="60" y="-590.5" fill="#000" font-family="ArialMT" font-size="10" text-anchor="start">attempts</text><text x="101.128" y="-590.5" fill="#999" font-family="Arial ItalicMT" font-size="10" text-anchor="start">integer</text><text x="60" y="-577.5" fill="#000" font-family="ArialMT" font-size="10" text-anchor="start">failed_at</text><text x="100.586" y="-577.5" fill="#999" font-family="Arial ItalicMT" font-size="10" text-anchor="start">datetime</text><text x="60" y="-564.5" fill="#000" font-family="ArialMT" font-size="10" text-anchor="start">handler</text><text x="96.138" y="-564.5" fill="#999" font-family="Arial ItalicMT" font-size="10" text-anchor="start">text</text><text x="60" y="-551.5" fill="#000" font-family="ArialMT" font-size="10" text-anchor="start">last_error</text><text x="105.015" y="-551.5" fill="#999" font-family="Arial ItalicMT" font-size="10" text-anchor="start">text</text><text x="60" y="-538.5" fill="#000" font-family="ArialMT" font-size="10" text-anchor="start">locked_at</text><text x="105.586" y="-538.5" fill="#999" font-family="Arial ItalicMT" font-size="10" text-anchor="start">datetime</text><text x="60" y="-525.5" fill="#000" font-family="ArialMT" font-size="10" text-anchor="start">locked_by</text><text x="107.808" y="-525.5" fill="#999" font-family="Arial ItalicMT" font-size="10" text-anchor="start">string</text><text x="60" y="-512.5" fill="#000" font-family="ArialMT" font-size="10" text-anchor="start">priority</text><text x="92.783" y="-512.5" fill="#999" font-family="Arial ItalicMT" font-size="10" text-anchor="start">integer</text><text x="60" y="-499.5" fill="#000" font-family="ArialMT" font-size="10" text-anchor="start">queue</text><text x="90.586" y="-499.5" fill="#999" font-family="Arial ItalicMT" font-size="10" text-anchor="start">string</text><text x="60" y="-486.5" fill="#000" font-family="ArialMT" font-size="10" text-anchor="start">run_at</text><text x="91.133" y="-486.5" fill="#999" font-family="Arial ItalicMT" font-size="10" text-anchor="start">datetime</text></g><g id="node2" class="node"><title>m_Deletion</title><path fill="none" stroke="#000" d="M12,-222.5C12,-222.5 132,-222.5 132,-222.5 138,-222.5 144,-228.5 144,-234.5 144,-234.5 144,-278.5 144,-278.5 144,-284.5 138,-290.5 132,-290.5 132,-290.5 12,-290.5 12,-290.5 6,-290.5 0,-284.5 0,-278.5 0,-278.5 0,-234.5 0,-234.5 0,-228.5 6,-222.5 12,-222.5"/><text x="49.821" y="-277.2" fill="#000" font-family="Arial BoldMT" font-size="11" text-anchor="start">Deletion</text><polyline fill="none" stroke="#000" points="0 -271.5 144 -271.5"/><text x="7" y="-258" fill="#000" font-family="ArialMT" font-size="10" text-anchor="start">number</text><text x="43.685" y="-258" fill="#999" font-family="Arial ItalicMT" font-size="10" text-anchor="start">string ∗</text><text x="7" y="-245" fill="#000" font-family="ArialMT" font-size="10" text-anchor="start">platform</text><text x="45.901" y="-245" fill="#999" font-family="Arial ItalicMT" font-size="10" text-anchor="start">string</text><text x="7" y="-232" fill="#000" font-family="ArialMT" font-size="10" text-anchor="start">rubygem</text><text x="48.685" y="-232" fill="#999" font-family="Arial ItalicMT" font-size="10" text-anchor="start">string ∗</text></g><g id="node3" class="node"><title>m_Dependency</title><path fill="none" stroke="#000" d="M728,-.5C728,-.5 848,-.5 848,-.5 854,-.5 860,-6.5 860,-12.5 860,-12.5 860,-56.5 860,-56.5 860,-62.5 854,-68.5 848,-68.5 848,-68.5 728,-68.5 728,-68.5 722,-68.5 716,-62.5 716,-56.5 716,-56.5 716,-12.5 716,-12.5 716,-6.5 722,-.5 728,-.5"/><text x="755.116" y="-55.2" fill="#000" font-family="Arial BoldMT" font-size="11" text-anchor="start">Dependency</text><polyline fill="none" stroke="#000" points="716 -49.5 860 -49.5"/><text x="723" y="-36" fill="#000" font-family="ArialMT" font-size="10" text-anchor="start">requirements</text><text x="784.138" y="-36" fill="#999" font-family="Arial ItalicMT" font-size="10" text-anchor="start">string ∗</text><text x="723" y="-23" fill="#000" font-family="ArialMT" font-size="10" text-anchor="start">scope</text><text x="752.463" y="-23" fill="#999" font-family="Arial ItalicMT" font-size="10" text-anchor="start">string</text><text x="723" y="-10" fill="#000" font-family="ArialMT" font-size="10" text-anchor="start">unresolved_name</text><text x="805.275" y="-10" fill="#999" font-family="Arial ItalicMT" font-size="10" text-anchor="start">string</text></g><g id="node4" class="node"><title>m_GemDownload</title><path fill="none" stroke="#000" d="M901,-13.5C901,-13.5 1021,-13.5 1021,-13.5 1027,-13.5 1033,-19.5 1033,-25.5 1033,-25.5 1033,-43.5 1033,-43.5 1033,-49.5 1027,-55.5 1021,-55.5 1021,-55.5 901,-55.5 901,-55.5 895,-55.5 889,-49.5 889,-43.5 889,-43.5 889,-25.5 889,-25.5 889,-19.5 895,-13.5 901,-13.5"/><text x="922.622" y="-42.2" fill="#000" font-family="Arial BoldMT" font-size="11" text-anchor="start">GemDownload</text><polyline fill="none" stroke="#000" points="889 -36.5 1033 -36.5"/><text x="896" y="-23" fill="#000" font-family="ArialMT" font-size="10" text-anchor="start">count</text><text x="923.241" y="-23" fill="#999" font-family="Arial ItalicMT" font-size="10" text-anchor="start">integer (8)</text></g><g id="node5" class="node"><title>m_Linkset</title><path fill="none" stroke="#000" d="M1017,-203C1017,-203 1137,-203 1137,-203 1143,-203 1149,-209 1149,-215 1149,-215 1149,-298 1149,-298 1149,-304 1143,-310 1137,-310 1137,-310 1017,-310 1017,-310 1011,-310 1005,-304 1005,-298 1005,-298 1005,-215 1005,-215 1005,-209 1011,-203 1017,-203"/><text x="1057.573" y="-296.7" fill="#000" font-family="Arial BoldMT" font-size="11" text-anchor="start">Linkset</text><polyline fill="none" stroke="#000" points="1005 -291 1149 -291"/><text x="1012" y="-278" fill="#000" font-family="ArialMT" font-size="10" text-anchor="start">bugs</text><text x="1036.463" y="-278" fill="#999" font-family="Arial ItalicMT" font-size="10" text-anchor="start">string</text><text x="1012" y="-265" fill="#000" font-family="ArialMT" font-size="10" text-anchor="start">code</text><text x="1036.463" y="-265" fill="#999" font-family="Arial ItalicMT" font-size="10" text-anchor="start">string</text><text x="1012" y="-252" fill="#000" font-family="ArialMT" font-size="10" text-anchor="start">docs</text><text x="1035.901" y="-252" fill="#999" font-family="Arial ItalicMT" font-size="10" text-anchor="start">string</text><text x="1012" y="-239" fill="#000" font-family="ArialMT" font-size="10" text-anchor="start">home</text><text x="1039.793" y="-239" fill="#999" font-family="Arial ItalicMT" font-size="10" text-anchor="start">string</text><text x="1012" y="-226" fill="#000" font-family="ArialMT" font-size="10" text-anchor="start">mail</text><text x="1033.113" y="-226" fill="#999" font-family="Arial ItalicMT" font-size="10" text-anchor="start">string</text><text x="1012" y="-213" fill="#000" font-family="ArialMT" font-size="10" text-anchor="start">wiki</text><text x="1031.443" y="-213" fill="#999" font-family="Arial ItalicMT" font-size="10" text-anchor="start">string</text></g><g id="node6" class="node"><title>m_LogTicket</title><path fill="none" stroke="#000" d="M883,-503C883,-503 1003,-503 1003,-503 1009,-503 1015,-509 1015,-515 1015,-515 1015,-585 1015,-585 1015,-591 1009,-597 1003,-597 1003,-597 883,-597 883,-597 877,-597 871,-591 871,-585 871,-585 871,-515 871,-515 871,-509 877,-503 883,-503"/><text x="917.356" y="-583.7" fill="#000" font-family="Arial BoldMT" font-size="11" text-anchor="start">LogTicket</text><polyline fill="none" stroke="#000" points="871 -578 1015 -578"/><text x="878" y="-564.5" fill="#000" font-family="ArialMT" font-size="10" text-anchor="start">backend</text><text x="918.586" y="-564.5" fill="#999" font-family="Arial ItalicMT" font-size="10" text-anchor="start">integer</text><text x="878" y="-551.5" fill="#000" font-family="ArialMT" font-size="10" text-anchor="start">directory</text><text x="919.123" y="-551.5" fill="#999" font-family="Arial ItalicMT" font-size="10" text-anchor="start">string</text><text x="878" y="-538.5" fill="#000" font-family="ArialMT" font-size="10" text-anchor="start">key</text><text x="896.34" y="-538.5" fill="#999" font-family="Arial ItalicMT" font-size="10" text-anchor="start">string</text><text x="878" y="-525.5" fill="#000" font-family="ArialMT" font-size="10" text-anchor="start">processed_count</text><text x="956.94" y="-525.5" fill="#999" font-family="Arial ItalicMT" font-size="10" text-anchor="start">integer</text><text x="878" y="-512.5" fill="#000" font-family="ArialMT" font-size="10" text-anchor="start">status</text><text x="907.458" y="-512.5" fill="#999" font-family="Arial ItalicMT" font-size="10" text-anchor="start">string</text></g><g id="node7" class="node"><title>m_Ownership</title><path fill="none" stroke="#000" d="M185,-235.5C185,-235.5 305,-235.5 305,-235.5 311,-235.5 317,-241.5 317,-247.5 317,-247.5 317,-265.5 317,-265.5 317,-271.5 311,-277.5 305,-277.5 305,-277.5 185,-277.5 185,-277.5 179,-277.5 173,-271.5 173,-265.5 173,-265.5 173,-247.5 173,-247.5 173,-241.5 179,-235.5 185,-235.5"/><text x="216.711" y="-264.2" fill="#000" font-family="Arial BoldMT" font-size="11" text-anchor="start">Ownership</text><polyline fill="none" stroke="#000" points="173 -258.5 317 -258.5"/><text x="180" y="-245" fill="#000" font-family="ArialMT" font-size="10" text-anchor="start">token</text><text x="207.241" y="-245" fill="#999" font-family="Arial ItalicMT" font-size="10" text-anchor="start">string</text></g><g id="node8" class="node"><title>m_Rubygem</title><path fill="none" stroke="#000" d="M710,-522.5C710,-522.5 830,-522.5 830,-522.5 836,-522.5 842,-528.5 842,-534.5 842,-534.5 842,-565.5 842,-565.5 842,-571.5 836,-577.5 830,-577.5 830,-577.5 710,-577.5 710,-577.5 704,-577.5 698,-571.5 698,-565.5 698,-565.5 698,-534.5 698,-534.5 698,-528.5 704,-522.5 710,-522.5"/><text x="744.461" y="-564.2" fill="#000" font-family="Arial BoldMT" font-size="11" text-anchor="start">Rubygem</text><polyline fill="none" stroke="#000" points="698 -558.5 842 -558.5"/><text x="705" y="-545.5" fill="#000" font-family="ArialMT" font-size="10" text-anchor="start">name</text><text x="732.793" y="-545.5" fill="#999" font-family="Arial ItalicMT" font-size="10" text-anchor="start">string ∗ U</text><text x="705" y="-532.5" fill="#000" font-family="ArialMT" font-size="10" text-anchor="start">slug</text><text x="726.123" y="-532.5" fill="#999" font-family="Arial ItalicMT" font-size="10" text-anchor="start">string</text></g><g id="edge2" class="edge"><title>m_Rubygem-&gt;m_Dependency</title><path fill="none" stroke="#000" d="M761.5812,-522.3089C753.4241,-493.9266 741.6278,-448.3577 737,-408 721.6584,-274.2101 695.5175,-233.1183 737,-105 740.2392,-94.9958 745.4875,-85.2197 751.413,-76.2872"/><polygon fill="#000" stroke="#000" points="754.167 -77.846 756.761 -68.67 749.011 -74.226 754.167 -77.846"/></g><g id="edge4" class="edge"><title>m_Rubygem-&gt;m_GemDownload</title><path fill="none" stroke="#000" d="M787.3611,-522.3228C803.0412,-499.0695 827.9155,-466.175 856,-444 885.0191,-421.0871 910.0704,-438.4805 931,-408 1008.1449,-295.651 979.1167,-117.0482 966.026,-55.872"/></g><g id="edge6" class="edge"><title>m_Rubygem-&gt;m_Linkset</title><path fill="none" stroke="#000" d="M785.5661,-522.4907C800.5961,-498.3621 825.5279,-464.0824 856,-444 904.9868,-411.7157 936.1479,-443.3108 983,-408 1016.0003,-383.1288 1040.1452,-342.9977 1055.6964,-310.2859"/></g><g id="edge7" class="edge"><title>m_Rubygem-&gt;m_Ownership</title><path fill="none" stroke="#000" d="M697.5851,-528.0758C576.733,-491.2763 345.6325,-419.9218 331,-408 291.5038,-375.8205 266.7498,-320.3956 254.4376,-286.2485"/><polygon fill="#000" stroke="#000" points="257.372 -285.096 251.433 -277.636 251.423 -287.171 257.372 -285.096"/></g><g id="node9" class="node"><title>m_Subscription</title><path fill="none" stroke="#000" d="M358,-238.5C358,-238.5 478,-238.5 478,-238.5 484,-238.5 490,-244.5 490,-250.5 490,-250.5 490,-262.5 490,-262.5 490,-268.5 484,-274.5 478,-274.5 478,-274.5 358,-274.5 358,-274.5 352,-274.5 346,-268.5 346,-262.5 346,-262.5 346,-250.5 346,-250.5 346,-244.5 352,-238.5 358,-238.5"/><text x="385.734" y="-252.7" fill="#000" font-family="Arial BoldMT" font-size="11" text-anchor="start">Subscription</text></g><g id="edge11" class="edge"><title>m_Rubygem-&gt;m_Subscription</title><path fill="none" stroke="#000" d="M697.8392,-524.4923C639.9958,-501.2126 559.584,-462.1599 504,-408 466.9738,-371.9224 441.0518,-316.4813 427.9125,-283.6185"/><polygon fill="#000" stroke="#000" points="430.75 -282.225 424.547 -274.983 424.88 -284.513 430.75 -282.225"/></g><g id="node10" class="node"><title>m_User</title><path fill="none" stroke="#000" d="M263.5,-444.5C263.5,-444.5 398.5,-444.5 398.5,-444.5 404.5,-444.5 410.5,-450.5 410.5,-456.5 410.5,-456.5 410.5,-643.5 410.5,-643.5 410.5,-649.5 404.5,-655.5 398.5,-655.5 398.5,-655.5 263.5,-655.5 263.5,-655.5 257.5,-655.5 251.5,-649.5 251.5,-643.5 251.5,-643.5 251.5,-456.5 251.5,-456.5 251.5,-450.5 257.5,-444.5 263.5,-444.5"/><text x="317.388" y="-642.2" fill="#000" font-family="Arial BoldMT" font-size="11" text-anchor="start">User</text><polyline fill="none" stroke="#000" points="251.5 -636.5 410.5 -636.5"/><text x="259" y="-623.5" fill="#000" font-family="ArialMT" font-size="10" text-anchor="start">api_key</text><text x="296.246" y="-623.5" fill="#999" font-family="Arial ItalicMT" font-size="10" text-anchor="start">string</text><text x="259" y="-610.5" fill="#000" font-family="ArialMT" font-size="10" text-anchor="start">confirmation_token</text><text x="346.271" y="-610.5" fill="#999" font-family="Arial ItalicMT" font-size="10" text-anchor="start">string (128)</text><text x="259" y="-597.5" fill="#000" font-family="ArialMT" font-size="10" text-anchor="start">email</text><text x="285.675" y="-597.5" fill="#999" font-family="Arial ItalicMT" font-size="10" text-anchor="start">string ∗ U</text><text x="259" y="-584.5" fill="#000" font-family="ArialMT" font-size="10" text-anchor="start">email_confirmed</text><text x="335.143" y="-584.5" fill="#999" font-family="Arial ItalicMT" font-size="10" text-anchor="start">boolean ∗</text><text x="259" y="-571.5" fill="#000" font-family="ArialMT" font-size="10" text-anchor="start">email_reset</text><text x="313.468" y="-571.5" fill="#999" font-family="Arial ItalicMT" font-size="10" text-anchor="start">boolean</text><text x="258.685" y="-558.5" fill="#000" font-family="ArialMT" font-size="10" text-anchor="start">encrypted_password</text><text x="353.739" y="-558.5" fill="#999" font-family="Arial ItalicMT" font-size="10" text-anchor="start">string (128)</text><text x="259" y="-545.5" fill="#000" font-family="ArialMT" font-size="10" text-anchor="start">handle</text><text x="291.808" y="-545.5" fill="#999" font-family="Arial ItalicMT" font-size="10" text-anchor="start">string U</text><text x="259" y="-532.5" fill="#000" font-family="ArialMT" font-size="10" text-anchor="start">hide_email</text><text x="310.143" y="-532.5" fill="#999" font-family="Arial ItalicMT" font-size="10" text-anchor="start">boolean</text><text x="259" y="-519.5" fill="#000" font-family="ArialMT" font-size="10" text-anchor="start">remember_token</text><text x="337.369" y="-519.5" fill="#999" font-family="Arial ItalicMT" font-size="10" text-anchor="start">string (128)</text><text x="259" y="-506.5" fill="#000" font-family="ArialMT" font-size="10" text-anchor="start">salt</text><text x="277.34" y="-506.5" fill="#999" font-family="Arial ItalicMT" font-size="10" text-anchor="start">string (128)</text><text x="259" y="-493.5" fill="#000" font-family="ArialMT" font-size="10" text-anchor="start">token</text><text x="286.241" y="-493.5" fill="#999" font-family="Arial ItalicMT" font-size="10" text-anchor="start">string (128)</text><text x="259" y="-480.5" fill="#000" font-family="ArialMT" font-size="10" text-anchor="start">token_expires_at</text><text x="337.94" y="-480.5" fill="#999" font-family="Arial ItalicMT" font-size="10" text-anchor="start">datetime</text><text x="259" y="-467.5" fill="#000" font-family="ArialMT" font-size="10" text-anchor="start">twitter_username</text><text x="338.478" y="-467.5" fill="#999" font-family="Arial ItalicMT" font-size="10" text-anchor="start">string</text><text x="259" y="-454.5" fill="#000" font-family="ArialMT" font-size="10" text-anchor="start">unconfirmed_email</text><text x="346.266" y="-454.5" fill="#999" font-family="Arial ItalicMT" font-size="10" text-anchor="start">string</text></g><g id="node11" class="node"><title>m_Version</title><path fill="none" stroke="#000" d="M763.5,-105.5C763.5,-105.5 904.5,-105.5 904.5,-105.5 910.5,-105.5 916.5,-111.5 916.5,-117.5 916.5,-117.5 916.5,-395.5 916.5,-395.5 916.5,-401.5 910.5,-407.5 904.5,-407.5 904.5,-407.5 763.5,-407.5 763.5,-407.5 757.5,-407.5 751.5,-401.5 751.5,-395.5 751.5,-395.5 751.5,-117.5 751.5,-117.5 751.5,-111.5 757.5,-105.5 763.5,-105.5"/><text x="813.652" y="-394.2" fill="#000" font-family="Arial BoldMT" font-size="11" text-anchor="start">Version</text><polyline fill="none" stroke="#000" points="751.5 -388.5 916.5 -388.5"/><text x="759" y="-375" fill="#000" font-family="ArialMT" font-size="10" text-anchor="start">authors</text><text x="795.133" y="-375" fill="#999" font-family="Arial ItalicMT" font-size="10" text-anchor="start">string</text><text x="759" y="-362" fill="#000" font-family="ArialMT" font-size="10" text-anchor="start">built_at</text><text x="794.024" y="-362" fill="#999" font-family="Arial ItalicMT" font-size="10" text-anchor="start">datetime</text><text x="759" y="-349" fill="#000" font-family="ArialMT" font-size="10" text-anchor="start">description</text><text x="810.138" y="-349" fill="#999" font-family="Arial ItalicMT" font-size="10" text-anchor="start">text</text><text x="759" y="-336" fill="#000" font-family="ArialMT" font-size="10" text-anchor="start">full_name</text><text x="805.138" y="-336" fill="#999" font-family="Arial ItalicMT" font-size="10" text-anchor="start">string ∗ U</text><text x="759" y="-323" fill="#000" font-family="ArialMT" font-size="10" text-anchor="start">indexed</text><text x="796.808" y="-323" fill="#999" font-family="Arial ItalicMT" font-size="10" text-anchor="start">boolean</text><text x="759" y="-310" fill="#000" font-family="ArialMT" font-size="10" text-anchor="start">info_checksum</text><text x="828.477" y="-310" fill="#999" font-family="Arial ItalicMT" font-size="10" text-anchor="start">string</text><text x="759" y="-297" fill="#000" font-family="ArialMT" font-size="10" text-anchor="start">latest</text><text x="785.68" y="-297" fill="#999" font-family="Arial ItalicMT" font-size="10" text-anchor="start">boolean</text><text x="759" y="-284" fill="#000" font-family="ArialMT" font-size="10" text-anchor="start">licenses</text><text x="797.906" y="-284" fill="#999" font-family="Arial ItalicMT" font-size="10" text-anchor="start">string</text><text x="759" y="-271" fill="#000" font-family="ArialMT" font-size="10" text-anchor="start">metadata</text><text x="803.473" y="-271" fill="#999" font-family="Arial ItalicMT" font-size="10" text-anchor="start">hstore ∗</text><text x="759" y="-258" fill="#000" font-family="ArialMT" font-size="10" text-anchor="start">number</text><text x="795.685" y="-258" fill="#999" font-family="Arial ItalicMT" font-size="10" text-anchor="start">string</text><text x="759" y="-245" fill="#000" font-family="ArialMT" font-size="10" text-anchor="start">platform</text><text x="797.901" y="-245" fill="#999" font-family="Arial ItalicMT" font-size="10" text-anchor="start">string</text><text x="759" y="-232" fill="#000" font-family="ArialMT" font-size="10" text-anchor="start">position</text><text x="796.246" y="-232" fill="#999" font-family="Arial ItalicMT" font-size="10" text-anchor="start">integer</text><text x="759" y="-219" fill="#000" font-family="ArialMT" font-size="10" text-anchor="start">prerelease</text><text x="809.029" y="-219" fill="#999" font-family="Arial ItalicMT" font-size="10" text-anchor="start">boolean</text><text x="759" y="-206" fill="#000" font-family="ArialMT" font-size="10" text-anchor="start">required_ruby_version</text><text x="861.28" y="-206" fill="#999" font-family="Arial ItalicMT" font-size="10" text-anchor="start">string</text><text x="758.907" y="-193" fill="#000" font-family="ArialMT" font-size="10" text-anchor="start">required_rubygems_version</text><text x="885.64" y="-193" fill="#999" font-family="Arial ItalicMT" font-size="10" text-anchor="start">string</text><text x="759" y="-180" fill="#000" font-family="ArialMT" font-size="10" text-anchor="start">requirements</text><text x="820.138" y="-180" fill="#999" font-family="Arial ItalicMT" font-size="10" text-anchor="start">text</text><text x="759" y="-167" fill="#000" font-family="ArialMT" font-size="10" text-anchor="start">sha256</text><text x="794.586" y="-167" fill="#999" font-family="Arial ItalicMT" font-size="10" text-anchor="start">string</text><text x="759" y="-154" fill="#000" font-family="ArialMT" font-size="10" text-anchor="start">size</text><text x="779.562" y="-154" fill="#999" font-family="Arial ItalicMT" font-size="10" text-anchor="start">integer</text><text x="759" y="-141" fill="#000" font-family="ArialMT" font-size="10" text-anchor="start">summary</text><text x="802.892" y="-141" fill="#999" font-family="Arial ItalicMT" font-size="10" text-anchor="start">text</text><text x="759" y="-128" fill="#000" font-family="ArialMT" font-size="10" text-anchor="start">yanked_at</text><text x="807.926" y="-128" fill="#999" font-family="Arial ItalicMT" font-size="10" text-anchor="start">datetime</text><text x="759" y="-115" fill="#000" font-family="ArialMT" font-size="10" text-anchor="start">yanked_info_checksum</text><text x="866.285" y="-115" fill="#999" font-family="Arial ItalicMT" font-size="10" text-anchor="start">string</text></g><g id="edge12" class="edge"><title>m_Rubygem-&gt;m_Version</title><path fill="none" stroke="#000" d="M776.021,-522.3882C781.529,-497.1285 790.1586,-457.554 799.0929,-416.5819"/><polygon fill="#000" stroke="#000" points="802.223 -417.01 801.063 -407.545 796.068 -415.668 802.223 -417.01"/></g><g id="node12" class="node"><title>m_WebHook</title><path fill="none" stroke="#000" d="M531,-229C531,-229 651,-229 651,-229 657,-229 663,-235 663,-241 663,-241 663,-272 663,-272 663,-278 657,-284 651,-284 651,-284 531,-284 531,-284 525,-284 519,-278 519,-272 519,-272 519,-241 519,-241 519,-235 525,-229 531,-229"/><text x="564.948" y="-270.7" fill="#000" font-family="Arial BoldMT" font-size="11" text-anchor="start">WebHook</text><polyline fill="none" stroke="#000" points="519 -265 663 -265"/><text x="526" y="-252" fill="#000" font-family="ArialMT" font-size="10" text-anchor="start">failure_count</text><text x="586.039" y="-252" fill="#999" font-family="Arial ItalicMT" font-size="10" text-anchor="start">integer</text><text x="526" y="-239" fill="#000" font-family="ArialMT" font-size="10" text-anchor="start">url</text><text x="539.892" y="-239" fill="#999" font-family="Arial ItalicMT" font-size="10" text-anchor="start">string</text></g><g id="edge13" class="edge"><title>m_Rubygem-&gt;m_WebHook</title><path fill="none" stroke="#000" d="M753.1601,-522.3882C720.5767,-468.9624 648.9384,-351.4995 612.7838,-292.2182"/><polygon fill="#000" stroke="#000" points="615.301 -290.296 607.926 -284.252 609.922 -293.576 615.301 -290.296"/></g><g id="edge1" class="edge"><title>m_User-&gt;m_Deletion</title><path fill="none" stroke="#000" d="M251.2553,-456.3027C246.2661,-451.9532 241.168,-447.8176 236,-444 205.2898,-421.3139 186.1063,-433.8421 158,-408 125.2998,-377.9341 101.8135,-332.4989 87.7323,-299.2268"/><polygon fill="#000" stroke="#000" points="90.526 -297.738 84.183 -290.618 84.701 -300.139 90.526 -297.738"/></g><g id="edge8" class="edge"><title>m_User-&gt;m_Ownership</title><path fill="none" stroke="#000" d="M300.0735,-444.4544C283.6038,-388.2466 264.5625,-323.2627 253.7345,-286.3089"/><polygon fill="#000" stroke="#000" points="256.719 -285.291 251.165 -277.54 250.673 -287.063 256.719 -285.291"/></g><g id="edge14" class="edge"><title>m_User-&gt;m_Subscription</title><path fill="none" stroke="#000" d="M362.2861,-444.4544C379.3687,-386.8253 399.1859,-319.9707 409.9788,-283.5599"/><polygon fill="#000" stroke="#000" points="413.11 -284.08 412.648 -274.556 407.07 -282.29 413.11 -284.08"/></g><g id="edge15" class="edge"><title>m_User-&gt;m_WebHook</title><path fill="none" stroke="#000" d="M410.8613,-494.2751C442.1865,-470.0298 477.0143,-439.8839 504,-408 534.2187,-372.2963 559.6017,-324.6294 575.0087,-292.37"/><polygon fill="#000" stroke="#000" points="577.914 -293.595 578.896 -284.11 572.213 -290.912 577.914 -293.595"/></g><g id="edge3" class="edge"><title>m_Version-&gt;m_Dependency</title><path fill="none" stroke="#000" d="M802.6812,-105.3526C800.6251,-95.4297 798.6715,-86.0015 796.8997,-77.4505"/><polygon fill="#000" stroke="#000" points="799.963 -76.708 795.052 -68.534 793.794 -77.986 799.963 -76.708"/></g><g id="edge5" class="edge"><title>m_Version-&gt;m_GemDownload</title><path fill="none" stroke="#000" d="M916.5816,-112.1448C929.1838,-90.1158 940.6806,-70.019 948.8191,-55.7926"/></g></g></svg>